<svg xmlns="http://www.w3.org/2000/svg" xml:space="preserve" id="Layer_1" x="0" y="0" version="1.1" viewBox="0 0 178 48"><style>.st1{fill:#8a7459;fill-rule:evenodd;clip-rule:evenodd}</style><path d="M19.36 19.8s-.12-.1-.17-.17-.11-.18-.11-.18-.09.06-.04.13.17.13.22.17.09.16.09.16l.02-.01zm3.09-6.21s-.04-.06-.31-.06c-.23 0-.37.12-.37.12s.16-.05.34-.06c.2-.01.24.03.24.03h.11v-.03zm.48 1.16s-.04.05-.22.06c-.17.01-.26.01-.32.05-.03.02-.1.05-.12.13-.03.09-.05.25-.06.35-.03.18-.16.62-.16.62s.06-.28.09-.46.02-.27.04-.41c.02-.11.03-.2.13-.27s.21-.13.35-.13.26.02.26.02zm-1.87 18.03s.1.02.13.04c.04.02.1.03.1.03s.01-.12 0-.17c-.01-.06-.11-.16-.15-.08-.06.1-.08.18-.08.18" class="st1"/><path d="M41.98 44.35c.27-.12.51-.29.7-.52.22-.26.34-.58.35-.92.04-1.28-1.24-1.23-1.24-1.23l-4.13.23s-.39.04-1.07-.12c-.67-.16-1.05-.67-1.05-.67l-5.64-8.43c.03-.02.05-.03.08-.05.26.13.61.28.96.33.76.12 1.57-.13 1.87-.17.72-.09 1.62-.68 1.9-1.06.4-.52 1.06-2.09 1.06-2.09s-1.15.54-1.71.7c-.28.08-.99.15-1.66.53-.66.39-1.21 1.07-1.51 1.44-.2.08-.4.09-.58.07 1.57-1.11 2.87-2.55 3.77-4.21.11-.01.24-.03.38-.07.59-.16 1.31-.38 2.04-.96.74-.58 1.16-1.28 1.3-2.2.08-.57.03-1.48.06-2.17.02-.42.14-.82.14-.82s-1.91 1.47-2.45 2.51c-.54 1.03-.43 2.16-.56 2.44-.12.29-.36.63-.58.76-.03.01-.06.03-.09.03.65-1.34 1.05-2.81 1.14-4.35l1.52-2.13c.16.07.36.07.53-.03.26-.16.34-.51.18-.77a.564.564 0 0 0-.77-.18.564.564 0 0 0-.12.85c.02.03-1.05 1.29-1.32 1.6 0-.76-.07-1.49-.22-2.21.1-.15.22-.32.34-.52.46-.76.9-1.33.96-2.56.06-1.24-.81-2.36-1.12-2.84-.32-.48-.57-1-.57-1s-.72 1.44-.7 2.64c.02 1.38.88 2.59.96 2.84.07.21.03.57 0 .78-.47-1.84-1.4-3.51-2.65-4.92l-.1-1.48c.18-.02.35-.13.43-.3.14-.28.03-.61-.24-.75a.56.56 0 0 0-.75.24c-.14.28-.03.61.24.75.03.02.06.03.09.04.02.01-.03.57-.09 1.07-.53-.54-1.1-1.03-1.72-1.47-.03-.4-.07-.92-.07-1.13q0-.15-.09-.42l1.34-1.99.93-.4 5-6.77s-.26-.45-.68-.76l-.3-.22a2.8 2.8 0 0 0-.94-.38L30.9 7.97l-.05 1.01-1.14 1.59c-.18-.24-.41-.48-.7-.69-.94-.7-3.72-1.12-3.72-1.12s.95.66 1.3 1.22c.36.56.56.86 1.1 1.28.49.38.89.34 1.2.45l-.2.28c-1.85-.94-3.97-1.48-6.22-1.48-2.24 0-4.34.53-6.18 1.46l-.2-.27c.44-.2 1.2-.48 1.72-1.03.84-.89.83-2.75.83-2.75s-.57.73-1.13 1.06c-.57.32-.94.4-1.49.75-.33.21-.58.47-.78.79l-1.21-1.67-.05-1.01-4.66-7s-.52.09-.94.38l-.3.22c-.42.3-.68.75-.68.75l5 6.77.93.4 1.49 2.21c-.11.49-.17 1.09-.2 1.42-.76.54-1.46 1.15-2.08 1.83-.03-.49-.09-1.69-.07-1.7.14-.05.27-.15.33-.3.13-.28.01-.61-.27-.74a.556.556 0 0 0-.74.27.556.556 0 0 0 .48.79l-.05 2.03c-1.3 1.55-2.22 3.4-2.59 5.42-.14-.23-.43-.7-.46-.77-.05-.1-.03-.6.03-.92.07-.31.64-1.1 1.02-2.03s.47-1.63.42-2.24c-.02-.26-.25-.77-.31-1.13-.08-.49 0-.8 0-.8s-.12.14-.37.75-1.09 1.46-1.55 2.56c-.41 1-.31 1.84-.23 2.24.12.66.37 1.18.71 1.71.24.38.54.81.69 1.02-.08.56-.13 1.13-.13 1.72v.15l-1.38-1.36c.05-.05.1-.1.13-.17.14-.28.03-.61-.24-.75a.56.56 0 0 0-.75.24.558.558 0 0 0 .77.74l1.51 2.18c.09.98.3 1.93.63 2.84-.17-.02-.43-.05-.52-.07-.14-.03-.54-1.35-.98-2.32-.41-.9-.98-1.1-1.4-1.7-.29-.42-.4-.74-.4-.74s-.41 2.5-.17 3.43.61 1.33 1.21 1.71c.51.32 2.02.22 2.45.19.31.74.69 1.45 1.14 2.11-.28 0-.83 0-1.02-.03-.24-.04-.69-.19-.75-.21.02-.06.03-.13.03-.2a.57.57 0 0 0-.57-.57c-.31 0-.56.25-.56.57 0 .31.25.56.56.56.16 0 .3-.06.39-.14 0 0 .7.24.99.29.22.04.84.04 1.15.04.62.86 1.35 1.63 2.17 2.32-.17 0-.37.01-.51-.03-.15-.04-.77-.53-1.07-.76s-1.72-1.07-2.09-1.22-.87-.18-1.11-.18-1.09.02-1.09.02.54.39.99.92c.31.36.6.96.89 1.31.28.35.93 1.14 2.08 1.15s1.68-.46 2.06-.58c.18-.06.34-.12.47-.16l.21.15-5.27 7.73s-.61.85-1.03 1.1c-.33.2-1.4.13-1.4.13s-2.55-.2-3.29-.22c-.74-.01-2.19.1-2.23 1.34-.02.59.17 1.14.71 1.43.14.07.28.13.43.17.9.27 1.82.15 2.74.06l.35-.03c.22-.03.43-.05.65-.09.54-.08 1.88-.45 2.47-1 .43-.4 1.71-2.3 1.71-2.3l5.15-7.69c.79.45 1.62.83 2.51 1.12-.04.03-.08.06-.12.08-.18.11-.44.33-1.18.48-.56.12-2.04-.08-2.04-.08s1 1.74 3.17 1.29c1.15-.24 1.64-.93 1.83-1.34.36.07.72.13 1.09.17-.26.25-.65.61-.91.82-.23.18-1.21.87-1.59 1.35s-.34.86-.34.86.56.62.88.85c.29.2.95.49 1.06.36.32-.38 1.11-1.63 1.11-1.63s-.14 1.39-.29 2.97c-.16 1.58-.82 5.12-.82 5.12s-.06.1.08.36 1.05 1.49 1.05 1.49.22-3.25.3-4.29.54-7.27.54-7.27l.08-.01s.09 1.39.03 2.99c-.04 1.24-.24 2.61-.25 3.45-.04 1.92.43 4.77.43 4.77s.13.26.27.05c.06-.09.3-.39.49-.73.25-.44.47-.94.47-.94s-.48-1.14-.7-2.98-.19-5.76-.19-5.76.51 1.01.83 1.41c.23.29.6.68.81.76.13.04.47-.1.58-.16.32-.2.47-.42.59-.6s.35-.53.3-.73c-.04-.2-.66-1.18-1.12-1.56s-.84-.47-1.07-.55c-.24-.08-.35-.25-.35-.25l-.02-.1c.3-.01.6-.04.9-.07.21.3.62.73 1.35 1.13.6.33 1.42.46 2.23.4s2.27-.73 2.27-.73-.49-.29-.74-.46-.97-.68-1.51-.73c-.35-.03-.94-.04-1.63.06l-.26.03c1.12-.27 2.18-.68 3.16-1.2l5.67 8.55s1.29 2.02 2.09 2.34c.94.38 2.01.38 3.01.45.69.06 1.56.07 2.27-.25m-22.1-7.15c-.1.13-.58.78-.72.84-.05.02-.24.14-.3.08-.05-.04.03-.29.04-.34.06-.2.73-.83.73-.83s.44-.38.5-.33c.07.07-.09.39-.25.58m4.61-.27c.31.39.39.69.39.69h-.26s-.1-.13-.32-.41-.76-.85-.76-.85.65.18.95.57m5.11-6.35q.105 0 .21-.03c.29-.11.44-.43.33-.72a.555.555 0 0 0-.72-.33c-.29.11-.44.43-.33.72.07.18.22.31.39.35l-.5 1.92c-1.14.66-2.4 1.16-3.75 1.45l.12-.17s.83-.34 1.32-1.03c.42-.59.95-1.14 1.05-1.41.1-.26-.08-1.15-.08-1.15s-.22.37-.47.56c-.24.18-.51.26-1.05.46s-1.18.27-1.7 1.13c-.15.25-.24.56-.33.85-.12.39-.21.76-.26.99-.32.03-.64.06-.96.06-.11-.13-.28-.28-.49-.38-.44-.2-.67-.17-1.02.04-.11.07-.17.18-.2.28-.41-.04-.8-.1-1.2-.17.03-.36-.05-1-.75-1.75-.92-.99-2.66-1.83-2.66-1.83s.03.77.09 1.25c.05.45.37.98.59 1.22.09.09.29.28.49.47-.85-.33-1.66-.75-2.4-1.24l-.04-1.82q.105.015.21-.03c.29-.1.45-.41.36-.7a.57.57 0 0 0-.71-.36c-.29.1-.45.41-.36.7.04.13.13.23.24.3.03.02-.09.97-.17 1.58-.35-.25-.68-.52-1-.81.18-.21.39-.5.5-.75.19-.47.2-.44.25-.98.05-.55-.34-1.31-.64-1.81s-1.25-1.74-1.39-2.04-.27-.93-.27-.93-.67 1.06-.45 2.48c.23 1.42.87 2.19 1.09 2.41.21.23.48.5.53.82.02.15.02.31.01.45-1.3-1.29-2.29-2.86-2.86-4.6l.81-1.55c.16.07.36.07.53-.03.26-.16.34-.51.18-.77a.564.564 0 0 0-.77-.18.564.564 0 0 0-.03.93l-.89 1.01c-.19-.73-.31-1.49-.34-2.27l.54-.27c.22-.11.82.01 1.58-.68s.77-2.78.86-3.25.48-1.27.48-1.27-1.59.55-2.2 1.45-.79 1.6-.87 2.2-.1.84-.1.84l-.29.31c.03-1.62.42-3.17 1.1-4.56l1.24-.71c.1.15.27.25.47.25a.56.56 0 1 0 0-1.12.56.56 0 0 0-.56.56c0 .07.01.15.04.21l-.93.32c.35-.64.77-1.25 1.23-1.81.14 0 .29.01.43.01.69.01 1.41.06 2.1-.09s2.12-1.23 2.12-1.23-1.04-.55-1.88-.43c-.84.11-1.35.74-1.76.81-.06.01-.12.02-.19.04.92-.9 1.99-1.66 3.18-2.25.26.2.65.47 1.16.66.95.35 1.58.3 2.01 0 .44-.3 1.01-1.17 1.01-1.17s-.26-.13-1.01-.06-1.05.24-1.44.32-.99.03-1.22.02c1.59-.7 3.36-1.09 5.24-1.09 2 0 3.9.45 5.57 1.24-.07.06-.16.11-.25.12-.22.01-.32.02-.74-.15s-.9-.46-1.42-.48-1.42.26-1.42.26.78 1.25 1.82 1.31c1 .05 1.44-.22 1.94-.48.25-.13.41-.25.51-.35 1.42.74 2.67 1.74 3.68 2.93-.14-.04-.32-.08-.43-.09-.2-.02-.32-.2-.98-.76s-1.16-1.02-1.86-1.06c-.76-.07-1.25.23-1.47.33-.23.1-.88.22-.88.22s.32.14.48.26c.26.18.7.64 1.72 1.12.88.42 1.92.46 2.36.46.34 0 1.14-.01 1.47-.02.37.49.7 1 .98 1.54l-1.08-.34c.03-.07.04-.14.05-.21a.56.56 0 1 0-1.12-.02.56.56 0 0 0 1.02.33l1.68 1.43c.47 1.22.73 2.55.73 3.92 0 .15 0 .29-.01.44l-.34-.95s-.03-.91-.15-1.38c-.6-2.28-3.11-2.84-3.11-2.84s.18 2.13.75 3.09c.56.96 1.78 1.3 2.16 1.74.3.35.52 1.14.59 1.44-.05.36-.12.71-.2 1.06l-.67-.94a.5.5 0 0 0 .16-.14c.18-.25.14-.6-.11-.78a.55.55 0 0 0-.78.11.557.557 0 0 0 .63.86l.46 1.91c-.46 1.29-1.15 2.48-2.03 3.53.22-.48.69-1.55.82-2.42.24-1.66-.46-3.25-.46-3.25s-.13.19-.21.43-1.12 1.25-1.36 2.75c-.21 1.32.09 3.17.16 3.59-.46.42-.96.82-1.5 1.17z" class="st1"/><path d="M29.62 12.31c.03.05.06.09.08.14s.04.11.05.17l-.24-.15zm-14.2.13.01.02c-.01.01-.02.01-.03.02 0-.02.01-.03.02-.04m8.03 1.22s-.01-.09-.18-.1c-.23-.01-.45.07-.45.07v.01s.27-.03.36-.02c.08.01.15.03.15.03zm1.1 6.01c.04.03.08.07.13.1l.21-.32c-.04-.09-.1-.19-.13-.26l-.28.42zm.41-.43.04.06.11-.17c-.04-.07-.09-.14-.13-.2-.01-.01-.01-.02-.02-.03l-.09.13c.02.08.06.17.09.21m-4.91.19-.11-.16c-.01.01-.03.02-.04.03-.03.01-.11.05-.19.09l.07.11c.02-.03.05-.05.06-.06.03-.04.17-.04.21-.01m-.21-.31-.08-.11c-.07.04-.16.08-.23.11l.11.16a3 3 0 0 0 .2-.16" class="st1"/><path d="M23.35 22.37v.28l-.06-.07-.07-.11.05-.36zm-2.29.06v.26l-.05.01v-.26zm-.02-.62s.01-.05.02-.07.04-.03.04-.03v.09zm.01.24.01.2h-.05zm-.42 1.58-.19.27-.02-.27s.09-.1.14-.1.07.1.07.1m0-.68s.01.1 0 .18-.08.37-.14.3-.04-.32-.04-.32zm-.04-.51c.07-.06.13-.03.13-.03s.01.14-.03.25-.1.17-.14.17-.06-.02-.06-.02v-.23c.01 0 .03-.08.1-.14m.12-.42v.05s.01.05-.04.13-.14.07-.14.07l-.01-.1s.02-.03.06-.06c.06-.03.13-.09.13-.09m.01-.73v-.17l.08.05s.01.06-.01.1c-.02.03-.07.02-.07.02m.01.25v.28s0 .02-.04.05c-.04.02-.07.01-.07.01v-.18l.05-.14c.01-.04.06-.02.06-.02m-.31-1.05s.11.13.05.45c-.05.25-.19.35-.19.35s.05-.15.1-.41c.05-.25.04-.39.04-.39m1.9 2.31-3.95 5.86-.56-.38 4.11-6.09-1.7-2.52c.02-.07.05-.17.05-.27 0-.13-.07-.35-.12-.56-.06-.2-.03-.33-.07-.46-.04-.14-.14-.25-.27-.23s-.25.12-.38.15l-.12.02-1.44-2.14.56-.38 3.9 5.78 4.05-6 .56.38-1.72 2.54a1 1 0 0 1-.12-.07c-.1-.07-.23-.26-.33-.07s-.04.23-.1.35-.19.17-.19.17l.26.66-.43-.37s-.17.01-.2.14-.01.25-.01.25-.17-.01-.17.19c-.01.2.07.29.14.32.02.01.04.03.06.05l-1.39 2.06 4.25 6.31-.56.38zm3.12 7.95s-.2.13-.52.13-.37-.06-.43-.07-.07-.15-.07-.15l-.02-4.24.92 1.31s.11 1.56.12 1.86c.01.31 0 1.16 0 1.16m-2.52-3.64c.01-1.47.01-2.78.01-2.95l.25.37c.01.07.07.34.11.55.05.24.1.56.14.97s.07.86.13 1.11c.06.26.18.55.18.55l.01-2.34.12.18.13.27s.01 1.72.04 2.92c.02 1.19.07 2.34.07 2.34s-.18.18-.56.12c-.39-.06-.54-.2-.54-.2s-.1-2.32-.09-3.89m1.2 4.79c.04.06 0 .12 0 .12l-.3-.02.07.19-.04.1s-.12-.09-.18-.09c-.07 0-.03.08-.01.15.02.08.02.14.02.14l-.07.05s-.11-.17-.21-.29c-.1-.11-.15.04-.16.09s.06.13.06.13.12.16.1.33c-.02.16-.11.13-.11.13s-.29-.13-.43-.53c-.1-.28-.11-.51-.11-.51s.32-.1.37-.17c.05-.08-.05-.3-.05-.3h.21s.15.07.3.11c.14.05.21.08.31.07s.23-.13.23-.13.08.05.1.1c.02.06.08.14.08.14l-.25.07c-.02.01.03.06.07.12m-3.61-4.07s.03.06.02.1-.05.18-.05.18-.05.02-.07.02 0-.19 0-.19zm.12-.46v.27h-.14l.01-.07zm-.11-.64c-.03-.01-.06-.08-.06-.13-.01-.05-.02-.49-.02-.49l.06-.1.02.47s.02.06.05.07.08-.06.08-.06v.25c.02 0-.1 0-.13-.01m.24 1.33v.11h-.08l-.01-.18h.04v.09zm.07-.5-.01.28-.11.02.05-.29h.07zm.02-.82-.01.13-.08-.01v-.11zm-.03-.77v-.2l.06-.02.01.21zm.05.17v.29h-.06v-.28zm-.79 1.07c.01.06.03.1.06.1s.07-.04.07-.04v.23s-.12 0-.15-.01-.06-.04-.07-.12 0-.55 0-.55l.1-.14c0-.01-.01.46-.01.53m2.58-1.92c-.01.71-.05 3.54-.06 4.36s-.01 1.84-.01 1.84-.09.39-.88.3c-.78-.08-1.04-.24-1.25-.28s-.65-.22-.65-.22.07-.6.08-.83.16-.74.19-1.1c.02-.36.05-1.64.05-1.64s.13-.11.16-.06c.04.05 0 .14 0 .23s-.03.38.26.44c.28.06.39-.07.45-.33s.08-.75.08-.81-.06-.12-.07-.24c-.01-.11.08-.24.08-.32v-.26s-.08-.11-.08-.22c0-.12-.01-.27.02-.33.04-.06.07-.17.07-.17v-.54l.73-1.11v1.57c0 .32.11 1.05.14 1.09.02.04.13-.02.15-.09s.01-.56.05-1.01.34-1.99.34-1.99l.21.3s-.05.71-.06 1.42m-1.02 7.26c-.09.14-.12.3-.13.38l-.02.17h-.12s-.06-.03-.19-.15-.28-.12-.28-.12l.02-.13c.01-.07.07-.15.07-.15l-.03-.09s-.09-.02-.13.01c-.05.03-.1.16-.1.16l-.11-.04.04-.32-.04-.04-.08.13-.11.02-.02-.34s-.04 0-.1.01-.15.11-.15.11l-.1-.09.12-.26 1.18.21s.14.02.25.09c.12.08.11.3.03.44m-2.18-1.72s-.09.05-.39.01-.27-.09-.27-.09.02-.87.05-1.31c.02-.45.19-1.23.19-1.23l.67-1.01s-.06.36.02.41.15.05.15.05-.08 1.34-.14 1.85c-.06.52-.28 1.32-.28 1.32m-.26-5.13s.11-.98.17-1.5.18-1.24.18-1.24.1.07.13.41-.01 1.35-.01 1.35.05.04.08 0 .16-.41.2-.61c.05-.19.1-.84.14-1.09s.19-.73.19-.73-.03.86-.08 1.19c-.05.34-.04.83-.04.83zm-.45-7.39c-.01-.11-.05-.4-.05-.4l.07.1.04.07.01.47c.01-.01-.06-.14-.07-.24m.3 2.52s.17.03.25.02.14-.08.21-.14.11.06.1.1-.03.17-.24.18a.38.38 0 0 1-.32-.16m.04.29c.32.17.65-.02.65-.02s-.19.52-.59.35c-.34-.14-.44-.65-.44-.65s.06.15.38.32m-.06-2.16c.07.04.16.01.23-.01s.36-.15.48-.19.19.13.13.18c-.07.05-.37.19-.44.22s-.16.18-.14.2.13.04.19.01.3-.22.34-.25.2-.03.2-.01c-.01.03-.07.16-.13.18-.05.02-.31.15-.36.17s-.04.09-.01.13q.06.06.12.03c.04-.02.15-.17.19-.2.03-.03.2-.03.22.01 0 .03-.06.06-.12.13v.01c-.01.01-.01.02-.02.03l-.01.01c-.01.01-.02.02-.02.03-.05.07-.1.17-.19.3-.12.19-.27.56-.31.62s-.19.06-.24.03-.23-.18-.27-.25a.85.85 0 0 1-.12-.33c-.01-.13-.02-.73-.02-.73s.15.2.2.2.07-.08.06-.14-.06-.12-.14-.19c-.08-.08-.07-.19-.07-.25.01-.06.07-.07.12-.09l.3-.19.01-.01c.01-.01.02-.01.03-.02.01 0 .01-.01.02-.01 0 0 .01 0 .01-.01 0 0 .01 0 .01-.01h.04c.08-.03.36-.14.36-.14l.04.06-.45.29c-.03.02-.09.05-.21.07-.12 0-.09.08-.03.12m.08 3.6c-.11-.05-.98-.76-.89-2.11s.23-1.76.23-1.76-.1 1.5-.04 2.07c.07.57.46 1.26.91 1.27.53.01.93-.67.93-.67s-.14.55-.46.93c-.33.42-.57.32-.68.27m2.79-2.06-.08-.12c.04.05.08.12.08.12m-2.42-4.33c.25-.14.63-.38.91-.25.28.14.34.23.36.42s-.05.29.08.53.18.3.36.37.27.06.39.16.14 0 .16.3.08.54.17.95c.1.41.16.68.16.68v.29s-.2-.18-.32-.58-.35-1.18-.4-1.29-.16-.3-.16-.3-.11.23-.04.5c.08.28.32.96.32.96l.03.58s-.32-.63-.47-.97-.36-.7-.36-.7-.05.17.04.49.25.83.25.83l-1.77-2.7c.02 0 .03-.13.29-.27m2.09.96s-.14-.19-.1-.52c.02-.16.1-.51.1-.51h.03l.01.38s-.05.07-.06.12c0 .03.02.53.02.53m.17-1.2c0 .04-.09.09-.09.09l-.02-.02.08-.15s.03.04.03.08m.98-.14h.08l-.02.22-.05-.01zm-2-.61c.13-.2.22-.27.44-.46s.41-.38.48-.55c0 0 .08-.23.07-.31s-.06-.12-.06-.12.06-.03.05-.16c-.02-.13-.08-.14-.08-.14l.02-.03s.16-.02.47-.18c.32-.17.43-.29.43-.29s.03.2.25.27c.21.08.53.18.64.24s.21.16.18.34-.15.39-.16.48-.01.25.31.46.33.21.39.31.08.29.08.29-.02-.04-.06-.04c-.03 0-.11.01-.11.01s.05.22.06.33c.02.1.03.26.03.26s-.11-.22-.17-.38-.14-.3-.2-.38a.8.8 0 0 0-.22-.19c-.03-.01-.05-.01-.05-.01l.02.13s.12.11.18.16.11.15.11.17c.01.02-.02.09-.02.09s.04.22.03.4c0 .19-.07.35-.07.35l-.03-.01-.04-.43c-.01-.11-.07-.24-.07-.24s-.09.3-.1.51-.1.5-.1.5l-.03-.72h-.03s-.02.09-.04.15-.06.11-.06.11-.03-.13-.03-.3c-.01-.17.07-.31.1-.56s-.02-.51-.06-.59-.14-.17-.14-.17c-.07-.06-.16-.09-.25-.15-.11-.07-.13-.15-.13-.19 0-.03.02-.1.02-.12s.02-.05.02-.05.15.14.39.06.23-.24.23-.24-.27-.03-.38-.03c-.1 0-.37.01-.37.01l-.03.53h-.03l-.01-.53s-.16-.02-.19-.02-.29 0-.39.01c-.09.01-.27.08-.27.08s.17.19.38.2c.19.01.29-.06.29-.06l.05-.02.02.16s-.03.13-.09.22c-.06.1-.16.11-.16.11s0 .03.02.06c.01.02.09.04.09.04s.27.01.48 0h.07s.2-.02.28.08.11.18.08.37c-.02.19-.18.74-.2.86-.04.2.05.5.05.5H23s-.03.12.01.2.24.26.28.32.05.1.05.1l-.1-.03a.7.7 0 0 1-.27-.26c-.09-.16-.15-.28-.15-.28l-.01.32s.03-.02.06-.01.2.19.2.19 0 .03-.02.03-.17-.16-.19-.17-.03-.02-.03-.02.02.07-.01.1c-.02.03-.07.06-.07.06s-.09-.07-.11-.15c-.01-.08.01-.54.01-.54s.08-.05.12-.04.04.16.04.16.13-.34.16-.63c.05-.46-.17-.55-.17-.55l-.01.49s-.04 0-.04-.02c-.01-.03-.08-.35-.08-.35s-.04.04-.05.11-.08 1.15-.1 1.25c-.02.08-.04-.01-.04-.01v-.85s-.18.57-.2.64c-.02.06-.05.21-.07.21-.01 0-.02-.03-.04-.06-.01-.03-.03-.11-.03-.11s-.04-.07-.07-.09l-.05-.03v-.33s-.04-.01-.04.02v.31s.02.04.02.06-.04.02-.05.06-.05.27-.05.29c0 .03.02.07.03.08.01.02.01.13.01.13s-.09-.03-.11-.16.01-.63.01-.68-.03-.07-.04-.1-.02-.07-.02-.07.09-.01.17-.21c.09-.21.06-.22.06-.22l.02-.72s.01-.05.04-.09c.04-.04.04-.16.04-.16s-.01.04-.05.09-.14.11-.2.27-.09.43-.11.5c-.02.08-.23.45-.29.61-.07.15-.17.27-.17.48 0 .2.01.37.01.37s-.11-.03-.14-.25c-.05-.33.08-.45.08-.45l-.01-.15s-.05.04-.08.07c-.02.03-.05.08-.05.08s-.02-.06.03-.2c.06-.13.39-.53.47-.63s.12-.22.13-.31c.01-.08-.02-.35-.02-.35h-.16s.06.23-.02.42c-.08.2-.14.28-.24.41s-.27.31-.31.34-.1.06-.1.06.01-.08.03-.14c.03-.07.08-.17.13-.21s.08-.1.08-.1-.09 0-.12.01-.07.06-.11.09-.13.19-.13.19-.04-.05.08-.24.22-.25.22-.25-.1 0-.26.13c-.16.14-.16.17-.16.17s-.04-.18.08-.38m.04-2.06c0-.88.77-1.59 1.73-1.59.95 0 1.73.71 1.73 1.59 0 .25-.07.49-.18.71-.05-.11-.16-.24-.2-.34-.06-.12-.06-.19-.13-.38-.07-.2-.24-.41-.3-.46s-.18-.18-.32-.26-.42-.01-.53-.01c-.11.01-.41.09-.55.09s-.23.13-.35.23-.25.29-.27.38-.01.51-.01.51-.02.01-.1.02c-.07.01-.13.12-.14.2s.05.25.06.37c-.27-.28-.44-.65-.44-1.06m1.74 7.2s.1.01.15.06.09.12.09.12l-.22.01-.18-.19zm.13-3.31.15.15c.06.06.1.07.1.07l-.1.13h-.03zm-.32.28.02-.63h.06l.11.63zm.04.23v.03s-.23.04-.34.02c-.07-.02-.15-.09-.15-.09v-.18s.12.14.21.17c.1.04.28.05.28.05m-.03 2.98-.24.01s-.05-.06-.09-.12-.07-.08-.07-.08h.18s.09.02.15.08c.05.06.07.11.07.11m-.23-1.81c-.2-.68-.1-.96-.1-.96s.19.06.25.06.47-.02.47-.02-.05.36-.11.67c-.06.3-.21 1.22-.21 1.22h-.04c0-.01-.06-.29-.26-.97m.79 1.63-.05.08a1 1 0 0 0-.06-.07zM24.42 16s.34.16.54.32c.16.13.29.33.33.4l-1.51 2.24-.3.39.62-1.49-.08-.11-.13.18c-.07.09-.34.59-.45.76-.1.17-.28.44-.28.44s.19-.74.26-.99c.07-.26.09-.67.09-.67s-.21.24-.32.5-.22.64-.32.94-.23.45-.23.45l.35-2.1s.44.09.64.02.32-.21.3-.29c-.03-.14-.28-.18-.28-.18s.09-.18.14-.24.16-.14.35-.29c.19-.16.28-.28.28-.28m.18 5c-.03-.07-.09-.13-.09-.13l.03-.03s.26.19.42.16c.17-.03.34-.25.34-.25h.08s-.05.35-.35.44c-.18.05-.31.01-.35-.02s-.05-.1-.08-.17m.45.41c.23-.06.39-.31.39-.31l.01.22s-.14.44-.41.45-.37-.32-.37-.32.15.02.38-.04m-.1-1.81c0-.07-.2-.42-.22-.47s.02-.25.02-.25.05.05.08.09c.02.04.09.21.13.28l.11.2s.12.03.16.03.04-.07.02-.1-.17-.28-.28-.44-.11-.29-.11-.29l.03-.07s.09.09.16.17c.03.03.05.06.07.08 0 .01.01.01.01.01l.01.01c.01.01.02.03.04.04.01.02.03.03.04.05.05.06.1.13.13.19.04.1.09.25 0 .43s-.35.42-.35.42l.08.1s.08-.04.11-.08c.04-.04.18-.19.18-.19s.04.26.01.38c-.03.11-.24.5-.24.5l-.28.13c-.09.04-.14-.01-.2-.12a.8.8 0 0 1-.06-.17l.09.03c.03.01.06-.02.06-.02s.02-.1 0-.15-.2-.14-.2-.14v-.07l.14-.01s-.02-.07-.07-.15c-.02-.03-.06-.09-.11-.16-.01-.01-.02-.03-.03-.04a.1.1 0 0 1-.03-.04c0-.01-.01-.01-.01-.02-.01-.02-.02-.03-.03-.05a.4.4 0 0 1-.08-.15c-.01-.07.05-.05.05-.05l.17.16c.09.08.23.18.33.14.1-.05.07-.15.07-.21m-.98 3.97-.01-.01-.21-.32.01-.76zm.96 1.43-.75-1.1-.02-.03.07-.1.04-.63s.26 1.22.3 1.29c.04.08.11.12.11.12l.01-.99.06.02zm.99-3.25c-.14.46-.41.8-.64.86-.23.07-.84-.03-1.13-.73-.25-.61-.26-.89-.26-.95l.23-.34c-.01.09-.02.17-.02.2.01.08-.01.98.33 1.27s.7.4 1.02.09.36-.44.4-.62c.04-.19-.02-.38-.07-.65s-.16-.55-.16-.88c0-.41.17-.67.17-.67s.06 1.06.1 1.37c.06.32.16.59.03 1.05m1.42 6.82-1.87-2.78c-.06-.31-.28-1.41-.31-1.88-.03-.55-.03-.99-.03-.99s.55 0 .86-.68.2-1.82.16-2.31c-.04-.5-.14-1.04-.14-1.46-.01-.34-.01-.57-.02-.65l1.29-1.91-.98-.66-.83 1.22c-.05-.08-.19-.29-.28-.38-.12-.11-.32-.03-.53-.13-.22-.1-.26-.38-.26-.52-.01-.14-.1-.57-.19-.75s-.38-.17-.36-.2c.01-.01.05-.11.1-.22.29-.31.47-.71.47-1.14 0-.97-.85-1.75-1.91-1.75s-1.91.78-1.91 1.75c0 .48.22.92.56 1.24-.04.1-.1.19-.16.24-.09.08-.5.36-.62.55s-.05.43-.05.43l-.71.25c-.31.11-.55.35-.55.35l-.04.07-.54-.8-.98.66.94 1.39c-.13.43-.41 1.45-.4 2.46.01 1.34.07 1.64.32 2.15.25.53.9.76.9.76l-.39 3.33.36-.51-1.78 2.63.98.66.18-.26c0 .07 0 .64-.03.91-.04.28-.14 1.18-.14 1.18s.07.12.36.22c.29.11.5.12.5.12s.21.27.27.34.18.01.26.06.08.11.08.11l-.04.51.48.41c.16.14.43.37.63.5s.52.21.52.21l.2-.25s.06-.28.09-.49c.04-.21.16-.46.16-.46l.21-.19.33.04s.2.6.35.84.42.31.42.31l.33-.26s.29-.36.44-.6.29-.42.34-.47.03-.14 0-.2a.6.6 0 0 1-.07-.26c0-.06.06-.13.06-.13s.24-.04.68-.06.8-.21.8-.21l-.06-2.53.55.82z" class="st1"/><path d="M19.39 18.91c.07-.03.16-.07.24-.1l-.13-.19c-.09.06-.18.12-.22.14z" class="st1"/><path d="M45.19 43.14h.2c.09 0 .16-.01.19-.04s.05-.06.05-.11c0-.03-.01-.06-.03-.08a.2.2 0 0 0-.07-.05.5.5 0 0 0-.16-.02h-.19v.3zm-.17.56v-.99h.34c.12 0 .2.01.26.03.05.02.09.05.13.1.03.05.05.09.05.15 0 .07-.03.14-.08.19a.34.34 0 0 1-.21.09c.04.01.06.03.09.05.04.04.09.11.15.2l.12.19h-.19l-.09-.16a.9.9 0 0 0-.17-.23.23.23 0 0 0-.13-.03h-.09v.42h-.18zm.41-1.28c-.13 0-.26.03-.38.1s-.22.16-.29.29c-.07.12-.1.25-.1.39 0 .13.03.26.1.38s.16.22.29.29a.81.81 0 0 0 .78 0c.12-.07.22-.16.29-.29.07-.12.1-.25.1-.38s-.03-.26-.1-.39a.8.8 0 0 0-.29-.29.9.9 0 0 0-.4-.1m0-.16c.16 0 .31.04.46.12s.26.19.35.34c.08.15.12.3.12.46s-.04.31-.12.46-.2.26-.34.34c-.15.08-.3.12-.46.12a.95.95 0 0 1-.81-.46.96.96 0 0 1-.12-.46c0-.16.04-.32.13-.46.08-.15.2-.26.35-.34.13-.08.29-.12.44-.12" style="fill:#8a7459"/><path d="M46.95 28.37c-.63 0-1.22-.1-1.79-.31-.57-.2-1.02-.47-1.33-.79l.35-.68c.3.29.69.53 1.19.73s1.03.29 1.58.29c.53 0 .96-.07 1.29-.2s.58-.31.73-.53.23-.47.23-.74c0-.33-.09-.59-.28-.79s-.44-.36-.74-.47c-.3-.12-.64-.22-1.01-.31s-.74-.18-1.1-.28c-.37-.1-.71-.23-1.02-.4s-.56-.39-.74-.67-.28-.64-.28-1.09c0-.42.11-.8.33-1.15s.56-.63 1.01-.84c.46-.21 1.04-.32 1.75-.32.47 0 .94.07 1.4.2s.87.31 1.2.55l-.3.71c-.36-.24-.74-.42-1.15-.53-.4-.11-.79-.17-1.17-.17-.5 0-.92.07-1.25.2-.33.14-.57.32-.73.55s-.23.49-.23.77c0 .33.09.59.28.79s.44.36.74.47q.465.165 1.02.3c.555.135.73.18 1.1.29.36.1.7.24 1.01.4s.56.38.74.65c.19.27.28.63.28 1.07 0 .41-.11.79-.34 1.13-.22.35-.57.63-1.03.84-.43.22-1.02.33-1.74.33zm7.17-.07v-7.64h-2.95v-.77h6.8v.77h-2.95v7.64zm8.26 0 3.84-8.4h.88l3.84 8.4H70l-3.53-7.89h.36L63.3 28.3zm1.52-2.25.26-.72h4.89l.26.72zm9.04 2.25v-8.4h.73l5.8 7.3h-.38v-7.3h.88v8.4h-.73l-5.8-7.3h.38v7.3zm10.36 0v-8.4h3.42c.9 0 1.68.18 2.36.53.68.36 1.2.85 1.58 1.48s.56 1.36.56 2.18-.19 1.55-.56 2.18c-.38.63-.9 1.13-1.58 1.48-.68.36-1.46.54-2.36.54H83.3zm.89-.77h2.49c.74 0 1.39-.15 1.94-.44s.97-.7 1.28-1.21c.3-.52.46-1.11.46-1.78 0-.68-.15-1.28-.46-1.79s-.73-.91-1.28-1.21c-.55-.29-1.19-.44-1.94-.44h-2.49zm9.62.77v-8.4h3.15c.71 0 1.32.11 1.84.34.51.23.91.56 1.18.98.28.43.41.95.41 1.55 0 .59-.14 1.1-.41 1.53-.28.43-.67.76-1.18.98-.51.23-1.13.34-1.84.34h-2.65l.4-.41v3.07h-.9zm.89-3-.4-.42h2.63c.84 0 1.48-.18 1.91-.55.44-.37.65-.88.65-1.55s-.22-1.19-.65-1.56c-.44-.37-1.07-.55-1.91-.55H94.3l.4-.42zm4.85 3-2.16-3.05h.96l2.17 3.05zm4.43-.77h5.05v.77h-5.94v-8.4h5.76v.77h-4.87zm-.09-3.88h4.44v.76h-4.44zm9.63 4.65-2.83-8.4h.91l2.65 7.91h-.46l2.74-7.91h.82l2.7 7.91h-.43l2.68-7.91h.85l-2.83 8.4h-.94l-2.58-7.5h.24l-2.59 7.5zm14.16.07c-.63 0-1.22-.1-1.79-.31-.57-.2-1.02-.47-1.33-.79l.35-.68c.3.29.69.53 1.19.73s1.03.29 1.58.29c.53 0 .96-.07 1.29-.2s.58-.31.73-.53c.16-.22.23-.47.23-.74 0-.33-.09-.59-.28-.79s-.44-.36-.74-.47c-.3-.12-.64-.22-1.01-.31s-.74-.18-1.1-.28c-.37-.1-.71-.23-1.02-.4s-.56-.39-.74-.67-.28-.64-.28-1.09c0-.42.11-.8.33-1.15s.56-.63 1.01-.84c.46-.21 1.04-.32 1.75-.32.47 0 .94.07 1.4.2s.87.31 1.2.55l-.3.71c-.36-.24-.74-.42-1.15-.53-.4-.11-.79-.17-1.17-.17-.5 0-.92.07-1.25.2-.33.14-.57.32-.73.55s-.23.49-.23.77c0 .33.09.59.28.79s.44.36.74.47q.465.165 1.02.3c.555.135.73.18 1.1.29.36.1.7.24 1.01.4s.56.38.74.65c.19.27.28.63.28 1.07 0 .41-.11.79-.34 1.13-.22.35-.57.63-1.03.84s-1.02.33-1.74.33zm9.41-.07v-8.4h.89v7.64h4.71v.77h-5.6zm7.67 0v-8.4h.89v8.4zm4.23 0v-8.4h.73l5.8 7.3h-.38v-7.3h.88v8.4h-.73L149.5 21h.38v7.3zm10.36 0v-8.4h.89v8.4zm.77-2.09-.04-1.08 5.09-5.23h1.02l-3.71 3.89-.5.54zm5.27 2.09-3.62-4.18.6-.65 4.08 4.83zm5.23.07c-.63 0-1.22-.1-1.79-.31-.57-.2-1.02-.47-1.33-.79l.35-.68c.3.29.69.53 1.19.73s1.03.29 1.58.29c.53 0 .96-.07 1.29-.2s.58-.31.73-.53c.16-.22.23-.47.23-.74 0-.33-.09-.59-.28-.79s-.44-.36-.74-.47c-.3-.12-.64-.22-1.01-.31s-.74-.18-1.1-.28c-.37-.1-.71-.23-1.02-.4s-.56-.39-.74-.67c-.19-.28-.28-.64-.28-1.09 0-.42.11-.8.33-1.15s.56-.63 1.01-.84c.46-.21 1.04-.32 1.75-.32.47 0 .94.07 1.4.2s.87.31 1.2.55l-.3.71c-.36-.24-.74-.42-1.15-.53-.4-.11-.79-.17-1.17-.17-.5 0-.92.07-1.25.2-.33.14-.57.32-.73.55s-.23.49-.23.77c0 .33.09.59.28.79s.44.36.74.47q.465.165 1.02.3c.555.135.73.18 1.1.29.36.1.7.24 1.01.4s.56.38.74.65c.19.27.28.63.28 1.07 0 .41-.11.79-.34 1.13-.22.35-.57.63-1.03.84-.43.22-1.02.33-1.74.33zm4.93-7.41h.24c.12 0 .2-.02.24-.05s.06-.08.06-.13c0-.03-.01-.07-.03-.1a.15.15 0 0 0-.09-.06.8.8 0 0 0-.2-.02h-.23v.36zm-.2.68v-1.21h.42c.14 0 .25.01.31.03q.09.03.15.12a.3.3 0 0 1 .06.18c0 .09-.03.17-.1.23-.06.07-.15.1-.25.11.04.02.08.04.1.06q.075.075.18.24l.15.24h-.24l-.11-.19c-.09-.15-.16-.24-.21-.28-.04-.03-.09-.04-.16-.04h-.11v.51zm.5-1.56c-.16 0-.31.04-.46.12s-.27.2-.35.35-.13.31-.13.47.04.32.13.47c.08.15.2.26.35.35.15.08.31.12.47.12s.32-.04.47-.12.27-.2.35-.35.12-.3.12-.47c0-.16-.04-.32-.13-.47a.9.9 0 0 0-.35-.35c-.16-.08-.32-.12-.47-.12zm0-.19c.19 0 .38.05.56.14q.27.15.42.42c.1.18.15.37.15.56s-.05.38-.15.56q-.15.27-.42.42a1.12 1.12 0 0 1-1.12 0q-.27-.15-.42-.42a1.12 1.12 0 0 1 0-1.12q.15-.27.42-.42c.18-.09.37-.14.56-.14z" style="stroke:#8a7459;stroke-width:.25;stroke-miterlimit:10;fill:#8a7459"/></svg>